<svg xmlns="http://www.w3.org/2000/svg" viewBox="0 0 64 64">
  <path d="M32 14 L32 22" stroke="#5d4037" stroke-width="2" stroke-linecap="round"/>
  <path d="M32 16 Q40 8 46 14 Q44 22 36 22 Q32 22 32 18 Z" fill="#7cb342"/>
  <path d="M32 16 Q40 8 46 14 Q44 22 36 22" fill="none" stroke="#558b2f" stroke-width="0.8"/>
  <path d="M32 22 Q14 22 10 38 Q10 56 22 58 Q28 56 32 58 Q36 56 42 58 Q54 56 54 38 Q50 22 32 22 Z" fill="#e53935"/>
  <path d="M32 22 Q22 24 18 32 Q14 42 18 50" stroke="#c62828" stroke-width="0.8" fill="none" opacity="0.4"/>
  <ellipse cx="22" cy="34" rx="6" ry="9" fill="#ef9a9a" opacity="0.5"/>
  <ellipse cx="42" cy="44" rx="3" ry="4" fill="#ef9a9a" opacity="0.35"/>
</svg>
