<svg xmlns="http://www.w3.org/2000/svg" viewBox="0 0 64 64">
  <path d="M26 60 L26 34 Q24 32 26 28 Q28 24 26 6 L30 6 Q28 24 30 28 Q32 32 30 34 L30 60 Z" fill="#aed581"/>
  <path d="M34 60 L34 34 Q32 32 34 28 Q36 24 34 6 L38 6 Q36 24 38 28 Q40 32 38 34 L38 60 Z" fill="#9ccc65"/>
  <path d="M30 60 L30 34 L34 34 L34 60 Z" fill="#fafafa"/>
  <path d="M26 34 L38 34" stroke="#bdbdbd" stroke-width="1"/>
  <path d="M28 8 L28 28" stroke="#558b2f" stroke-width="0.6"/>
  <path d="M36 8 L36 28" stroke="#558b2f" stroke-width="0.6"/>
  <path d="M30 40 L30 58" stroke="#e0e0e0" stroke-width="0.6"/>
  <path d="M34 40 L34 58" stroke="#e0e0e0" stroke-width="0.6"/>
  <path d="M22 58 Q24 56 26 58" stroke="#9e9e9e" stroke-width="0.8" fill="none"/>
  <path d="M38 58 Q40 56 42 58" stroke="#9e9e9e" stroke-width="0.8" fill="none"/>
</svg>
