<svg xmlns="http://www.w3.org/2000/svg" viewBox="0 0 64 64">
  <ellipse cx="32" cy="40" rx="26" ry="20" fill="#8bc34a"/>
  <path d="M8 38 Q14 22 24 20 Q28 28 32 22 Q36 28 40 22 Q50 22 56 38 Q50 28 42 30 Q36 36 32 30 Q28 36 22 30 Q14 28 8 38 Z" fill="#aed581"/>
  <path d="M12 42 Q20 34 32 38 Q44 34 52 42 Q44 50 32 50 Q20 50 12 42 Z" fill="#c5e1a5"/>
  <path d="M16 44 Q24 40 32 44 Q40 40 48 44" stroke="#9ccc65" stroke-width="1" fill="none"/>
  <path d="M20 48 Q26 46 32 48 Q38 46 44 48" stroke="#9ccc65" stroke-width="1" fill="none"/>
</svg>
