<svg xmlns="http://www.w3.org/2000/svg" viewBox="0 0 64 64">
  <path d="M32 14 Q28 8 32 4 Q36 8 32 14" fill="#7cb342" stroke="#558b2f" stroke-width="1"/>
  <ellipse cx="32" cy="38" rx="22" ry="22" fill="#c69c6d"/>
  <ellipse cx="32" cy="38" rx="22" ry="22" fill="none" stroke="#8d6e63" stroke-width="1"/>
  <path d="M32 16 Q14 20 12 38 Q14 56 32 60 Q50 56 52 38 Q50 20 32 16 Z" fill="#a98263" opacity="0.0"/>
  <path d="M20 22 Q32 18 44 22" stroke="#8d6e63" stroke-width="0.8" fill="none"/>
  <path d="M16 30 Q32 24 48 30" stroke="#8d6e63" stroke-width="0.8" fill="none"/>
  <path d="M14 38 Q32 32 50 38" stroke="#8d6e63" stroke-width="0.8" fill="none"/>
  <path d="M16 46 Q32 52 48 46" stroke="#8d6e63" stroke-width="0.8" fill="none"/>
  <path d="M20 54 Q32 58 44 54" stroke="#8d6e63" stroke-width="0.8" fill="none"/>
  <path d="M32 16 L32 60" stroke="#795548" stroke-width="0.6" opacity="0.5"/>
</svg>
