<svg xmlns="http://www.w3.org/2000/svg" viewBox="0 0 64 64">
  <path d="M32 58 L32 36" stroke="#6d4c41" stroke-width="2"/>
  <path d="M14 30 Q10 18 22 14 Q28 22 26 34 Q20 36 14 30 Z" fill="#2e7d32"/>
  <path d="M50 30 Q54 18 42 14 Q36 22 38 34 Q44 36 50 30 Z" fill="#2e7d32"/>
  <path d="M18 42 Q12 38 16 28 Q24 30 26 40 Q22 44 18 42 Z" fill="#388e3c"/>
  <path d="M46 42 Q52 38 48 28 Q40 30 38 40 Q42 44 46 42 Z" fill="#388e3c"/>
  <path d="M32 10 Q22 14 22 26 Q26 38 32 40 Q38 38 42 26 Q42 14 32 10 Z" fill="#43a047"/>
  <path d="M32 14 Q28 18 28 26 Q30 34 32 36 Q34 34 36 26 Q36 18 32 14 Z" fill="#66bb6a"/>
  <path d="M32 12 L32 38" stroke="#1b5e20" stroke-width="0.8"/>
</svg>
